# xmcd
#
# Track frame offsets: 
#        150
#        17455
#        33498
#        50965
#        71114
#        87453
#        102858
#        122276
#        137535
#        150448
#        164103
#        176304
#
# Disc length: 2534 seconds
#
# Revision: 0
# Processed by: cddbd v1.5.2PL0 Copyright (c) Steve Scherf et al.
# Submitted via: ExactAudioCopyFreeDBPlugin 1.0
#
DISCID=9909e40c
DTITLE=Various Artist - HMG Nashville - Country - Volume 4
DYEAR=2007
DGENRE=Country
TTITLE0=Jonathan Sherrill - Whose Side I'm On
TTITLE1=Marti Carroll - Back Track
TTITLE2=Bellamy Brothers - Drug Problem
TTITLE3=Billy Allen - Angel Of Mercy
TTITLE4=Trinda Victorine - The Secrets That We Keep
TTITLE5=Melodie Hoy - Please Forgive Me
TTITLE6=Rebecca Linda Smith - Renewed - That Living Water
TTITLE7=Keith Marcum - Shine On
TTITLE8=Adair - Oh Yeah
TTITLE9=Robert E. Lee, Sr. - Can't Help Falling In Love
TTITLE10=Elvis L. Carden - American Rebel
TTITLE11=Donald Guhy - Liquid Gold
EXTD=
EXTT0=
EXTT1=
EXTT2=
EXTT3=
EXTT4=
EXTT5=
EXTT6=
EXTT7=
EXTT8=
EXTT9=
EXTT10=
EXTT11=
PLAYORDER=
